<svg width="392" height="280" viewBox="0 0 392 280" fill="none" xmlns="http://www.w3.org/2000/svg">
<g filter="url(#filter0_d_5256_46)">
<line x1="117.386" y1="106.05" x2="167.93" y2="106.04" stroke="#5452F6" stroke-width="1.04223"/>
<path d="M162.718 101.298L168.19 106.247L162.72 110.938" stroke="#5452F6" stroke-width="1.04223" stroke-linecap="round" stroke-linejoin="round"/>
<circle cx="115.041" cy="106.311" r="2.86614" stroke="#5452F6" stroke-width="1.04223"/>
<path d="M271.832 107.3L301.114 107.294C312.626 107.292 321.957 97.9573 321.954 86.4451L321.949 59.8204" stroke="#5452F6" stroke-width="1.04223" stroke-linecap="round" stroke-linejoin="round"/>
<path d="M321.552 59.2158L317.776 63.3793C317.473 63.7143 317.71 64.2506 318.162 64.2505L325.507 64.249C325.952 64.2489 326.192 63.7266 325.902 63.3887L322.333 59.2266C322.129 58.9885 321.762 58.9834 321.552 59.2158Z" fill="#5452F6"/>
<circle cx="269.488" cy="107.561" r="2.86614" transform="rotate(-90.0117 269.488 107.561)" fill="#5452F6"/>
<line x1="214.931" y1="24.1395" x2="276.73" y2="24.1269" stroke="#5452F6" stroke-width="1.04223" stroke-dasharray="2.61 4.17"/>
<path d="M271.518 18.7598L276.99 23.7093L271.52 28.4004" stroke="#5452F6" stroke-width="1.04223" stroke-linecap="round" stroke-linejoin="round"/>
<circle cx="212.586" cy="24.4007" r="2.86614" stroke="#5452F6" stroke-width="1.04223"/>
<path d="M151.621 213.236L151.617 196.397C151.616 190.641 156.282 185.973 162.038 185.972L275.733 185.949C281.489 185.948 286.156 190.613 286.158 196.369L286.161 213.209" stroke="#5452F6" stroke-width="1.04223"/>
<line x1="218.312" y1="185.713" x2="218.306" y2="157.052" stroke="#5452F6" stroke-width="1.04223"/>
<path d="M291.124 207.997L286.302 213.209L281.731 207.999" stroke="#5452F6" stroke-width="1.04223" stroke-linecap="round" stroke-linejoin="round"/>
<path d="M156.584 208.024L151.761 213.237L147.191 208.026" stroke="#5452F6" stroke-width="1.04223" stroke-linecap="round" stroke-linejoin="round"/>
<circle cx="218.045" cy="154.186" r="2.86614" stroke="#5452F6" stroke-width="1.04223"/>
<g filter="url(#filter1_b_5256_46)">
<path fill-rule="evenodd" clip-rule="evenodd" d="M301.637 0C295.766 0 291.007 4.75915 291.007 10.6299V38.1425C291.007 44.0133 295.766 48.7724 301.637 48.7724H377.297C383.167 48.7724 387.926 44.0133 387.926 38.1425V10.6299C387.926 4.75916 383.167 0 377.297 0H301.637ZM14.6299 81.2873C8.75916 81.2873 4 86.0465 4 91.9172V119.43C4 125.301 8.75917 130.06 14.6299 130.06H90.2897C96.1604 130.06 100.92 125.301 100.92 119.43V91.9172C100.92 86.0465 96.1604 81.2873 90.2896 81.2873H14.6299ZM151.568 223.228C138.1 223.228 127.182 234.146 127.182 247.614C127.182 261.082 138.1 272 151.568 272C165.036 272 175.954 261.082 175.954 247.614C175.954 234.146 165.036 223.228 151.568 223.228ZM262.244 247.614C262.244 234.146 273.162 223.228 286.63 223.228C300.098 223.228 311.016 234.146 311.016 247.614C311.016 261.082 300.098 272 286.63 272C273.162 272 262.244 261.082 262.244 247.614ZM127.182 19.3839C127.182 13.5132 131.941 8.754 137.811 8.754H189.71C195.581 8.754 200.34 13.5132 200.34 19.3839V27.5126C200.34 33.3833 195.581 38.1425 189.71 38.1425H137.811C131.941 38.1425 127.182 33.3833 127.182 27.5126V19.3839ZM220.331 71.1114C218.703 69.4837 216.063 69.4842 214.435 71.1126L182.036 103.526C180.408 105.154 180.409 107.794 182.037 109.421L214.45 141.821C216.078 143.449 218.718 143.448 220.346 141.82L252.745 109.407C254.373 107.778 254.373 105.139 252.744 103.511L220.331 71.1114Z" fill="url(#paint0_radial_5256_46)"/>
</g>
<path d="M50.8987 71.9082L50.8986 44.3021C50.8985 32.7915 60.2284 23.4597 71.739 23.4573L112.124 23.4491" stroke="#5452F6" stroke-width="1.04223" stroke-linecap="round" stroke-linejoin="round"/>
<path d="M112.729 23.846L108.567 27.6231C108.232 27.9269 107.696 27.6894 107.696 27.2373L107.694 19.8929C107.694 19.4477 108.216 19.2074 108.554 19.4971L112.718 23.0643C112.956 23.2684 112.961 23.6352 112.729 23.846Z" fill="#5452F6"/>
<circle cx="2.86614" cy="2.86614" r="2.86614" transform="matrix(1 -0.000204516 -0.000204516 -1 47.7714 74.5151)" fill="#5452F6"/>
<path d="M27.1513 103.125V111.296H29.0075V108.051H32.5798V106.347H29.0075V104.829H33.2569V103.125H27.1513ZM35.7755 111.296V105.226H34.0244V111.296H35.7755ZM34.1178 104.49C34.328 104.689 34.5848 104.794 34.9 104.794C35.2152 104.794 35.472 104.689 35.6705 104.49C35.8806 104.292 35.9857 104.035 35.9857 103.72C35.9857 103.405 35.8806 103.148 35.6705 102.949C35.472 102.751 35.2152 102.646 34.9 102.646C34.5848 102.646 34.328 102.751 34.1178 102.949C33.9194 103.148 33.8143 103.405 33.8143 103.72C33.8143 104.035 33.9194 104.292 34.1178 104.49ZM38.5117 105.226H36.7605V111.296H38.5117V108.028C38.5117 107.316 39.037 106.779 39.7374 106.779C39.9943 106.779 40.2044 106.837 40.3679 106.942V105.074C39.539 105.074 38.9203 105.331 38.5117 105.856V105.226ZM45.6731 106.732C45.5213 105.693 44.6574 105.074 43.2449 105.074C41.7623 105.074 40.7816 105.681 40.7816 107.024C40.7816 107.923 41.2486 108.46 42.381 108.775L43.49 109.102C43.8986 109.218 44.0971 109.37 44.0971 109.569C44.0971 109.849 43.7702 110.012 43.3033 110.012C42.7312 110.012 42.381 109.814 42.2643 109.405L40.6532 109.627C40.8283 110.783 41.7389 111.448 43.2682 111.448C44.7742 111.448 45.7665 110.771 45.7665 109.499C45.7665 108.576 45.2645 108.016 44.0387 107.631L42.953 107.28C42.6378 107.164 42.4744 107.024 42.4744 106.872C42.4744 106.603 42.7079 106.475 43.1632 106.475C43.6651 106.475 43.9687 106.65 44.0737 106.989L45.6731 106.732ZM46.1339 106.743H46.9627V109.358C46.9627 109.907 47.1612 110.374 47.5698 110.748C47.9784 111.11 48.492 111.296 49.0874 111.296H50.0914V109.662H49.3793C48.994 109.662 48.7138 109.394 48.7138 109.02V106.743H50.0914V105.226H48.7138V104.047H46.9627V105.226H46.1339V106.743ZM59.5274 104.887C59.3756 104.339 59.037 103.883 58.4884 103.521C57.9513 103.16 57.3093 102.973 56.5738 102.973C55.7449 102.973 55.0678 103.206 54.5425 103.673C54.0288 104.128 53.772 104.736 53.772 105.483C53.772 105.961 53.9238 106.382 54.0989 106.673C54.274 106.965 54.6826 107.245 54.9278 107.421C55.0562 107.502 55.243 107.584 55.4881 107.689L56.0601 107.899C56.2002 107.934 56.4104 108.004 56.6789 108.086L56.7956 108.121C57.2626 108.273 57.5428 108.366 57.8113 108.6C57.9513 108.716 58.0214 108.845 58.0214 108.997C58.0214 109.429 57.4844 109.744 56.819 109.744C56.0835 109.744 55.5231 109.382 55.3947 108.915L53.5385 109.358C53.7136 109.977 54.0872 110.479 54.6826 110.864C55.278 111.25 55.9901 111.448 56.819 111.448C57.7179 111.448 58.4533 111.215 59.0254 110.736C59.5974 110.257 59.8776 109.627 59.8776 108.833C59.8309 107.829 59.434 107.257 58.7569 106.895C58.2899 106.615 58.0331 106.533 57.5311 106.382C56.8773 106.183 56.4687 106.055 56.3053 105.996C55.85 105.81 55.6282 105.588 55.6282 105.343C55.6282 104.957 56.0485 104.677 56.6088 104.677C57.1575 104.677 57.5895 104.957 57.6945 105.319L59.5274 104.887ZM60.1679 106.743H60.9967V109.358C60.9967 109.907 61.1952 110.374 61.6038 110.748C62.0124 111.11 62.5261 111.296 63.1214 111.296H64.1254V109.662H63.4133C63.028 109.662 62.7479 109.394 62.7479 109.02V106.743H64.1254V105.226H62.7479V104.047H60.9967V105.226H60.1679V106.743ZM71.0384 108.892C71.0851 108.693 71.1084 108.483 71.1084 108.261C71.1084 107.362 70.8049 106.603 70.1862 105.996C69.5675 105.378 68.8086 105.074 67.8981 105.074C66.9758 105.074 66.217 105.378 65.5983 105.996C64.9795 106.603 64.676 107.362 64.676 108.261C64.676 109.172 64.9912 109.931 65.6216 110.538C66.252 111.145 67.0458 111.448 67.9915 111.448C69.2873 111.448 70.3496 110.818 70.8983 109.802L69.2056 109.417C68.902 109.779 68.5051 109.954 68.0031 109.954C67.291 109.954 66.719 109.534 66.5205 108.892H71.0384ZM66.5322 107.596C66.7306 106.977 67.2793 106.568 67.8981 106.568C68.5518 106.568 69.1005 106.977 69.3223 107.596H66.5322ZM73.5682 113.923V110.888C74.0702 111.261 74.6189 111.448 75.2376 111.448C76.0548 111.448 76.7436 111.145 77.2923 110.538C77.8409 109.919 78.1211 109.16 78.1211 108.261C78.1211 107.351 77.8409 106.592 77.2923 105.985C76.7436 105.378 76.0548 105.074 75.2376 105.074C74.6072 105.074 74.0469 105.261 73.5682 105.634V105.226H71.8171V113.923H73.5682ZM74.9458 106.802C75.6929 106.802 76.2883 107.432 76.2883 108.273C76.2883 108.681 76.1599 109.02 75.8914 109.3C75.6345 109.58 75.3193 109.72 74.9458 109.72C74.1869 109.72 73.5916 109.078 73.5916 108.273C73.5916 107.432 74.1869 106.802 74.9458 106.802Z" fill="white"/>
<path d="M143.06 20.6219L142.336 20.8332C142.288 20.6164 142.147 20.4349 141.914 20.2886C141.686 20.1368 141.418 20.061 141.109 20.061C140.767 20.061 140.486 20.145 140.263 20.313C140.041 20.4755 139.93 20.6815 139.93 20.9307C139.93 21.2017 140.082 21.413 140.385 21.5648C140.624 21.6786 140.99 21.7978 141.483 21.9225C141.884 22.0254 142.195 22.1311 142.418 22.2395C142.938 22.4833 143.212 22.9087 143.239 23.5157C143.239 24.0251 143.044 24.4369 142.653 24.7513C142.274 25.0656 141.781 25.2227 141.174 25.2227C140.627 25.2227 140.161 25.0954 139.776 24.8407C139.391 24.5914 139.147 24.2662 139.044 23.8652L139.776 23.6457C139.819 23.895 139.971 24.1037 140.231 24.2717C140.497 24.4342 140.811 24.5155 141.174 24.5155C141.553 24.5155 141.87 24.4288 142.125 24.2554C142.38 24.0766 142.507 23.849 142.507 23.5726C142.507 23.2908 142.372 23.0794 142.101 22.9385C141.862 22.8139 141.588 22.7136 141.28 22.6378L140.938 22.5484L140.621 22.4508L140.288 22.337C140.272 22.3316 140.247 22.3235 140.215 22.3126C140.188 22.2964 140.152 22.2801 140.109 22.2639C140.066 22.2422 140.028 22.2232 139.995 22.207C139.86 22.1419 139.7 22.0254 139.516 21.8574C139.331 21.6732 139.223 21.3805 139.19 20.9795C139.19 20.4972 139.369 20.107 139.727 19.809C140.09 19.5055 140.548 19.3538 141.101 19.3538C141.599 19.3538 142.025 19.473 142.377 19.7114C142.735 19.9445 142.962 20.2479 143.06 20.6219ZM148.305 23.2556H144.672C144.721 23.6349 144.888 23.9519 145.176 24.2066C145.458 24.4559 145.804 24.5805 146.216 24.5805C146.753 24.5805 147.17 24.3773 147.468 23.9709L148.135 24.1822C147.939 24.5074 147.671 24.7621 147.33 24.9463C146.994 25.1306 146.623 25.2227 146.216 25.2227C145.577 25.2227 145.04 25.0141 144.607 24.5968C144.179 24.1741 143.965 23.6485 143.965 23.0198C143.965 22.3912 144.173 21.8683 144.59 21.451C145.008 21.0283 145.525 20.8169 146.143 20.8169C146.766 20.8169 147.284 21.0283 147.696 21.451C148.113 21.8683 148.322 22.3912 148.322 23.0198C148.322 23.0361 148.316 23.1147 148.305 23.2556ZM144.68 22.7028H147.614C147.549 22.3397 147.379 22.039 147.102 21.8005C146.831 21.5675 146.506 21.451 146.127 21.451C145.758 21.451 145.441 21.5675 145.176 21.8005C144.91 22.0335 144.745 22.3343 144.68 22.7028ZM153.192 22.0932L152.51 22.2964C152.385 22.0525 152.203 21.8601 151.965 21.7192C151.732 21.5729 151.469 21.4998 151.176 21.4998C150.748 21.4998 150.393 21.6461 150.112 21.9387C149.824 22.2259 149.681 22.5863 149.681 23.0198C149.681 23.4479 149.824 23.811 150.112 24.1091C150.399 24.3963 150.754 24.5399 151.176 24.5399C151.469 24.5399 151.732 24.4695 151.965 24.3286C152.203 24.1822 152.385 23.9871 152.51 23.7433L153.192 23.9465C153.019 24.3421 152.751 24.6537 152.388 24.8813C152.03 25.1089 151.626 25.2227 151.176 25.2227C150.553 25.2227 150.028 25.0141 149.599 24.5968C149.182 24.1687 148.974 23.643 148.974 23.0198C148.974 22.3912 149.182 21.8683 149.599 21.451C150.022 21.0283 150.548 20.8169 151.176 20.8169C151.626 20.8169 152.03 20.9307 152.388 21.1583C152.751 21.386 153.019 21.6976 153.192 22.0932ZM154.466 24.5968C154.048 24.1687 153.84 23.643 153.84 23.0198C153.84 22.3912 154.048 21.8683 154.466 21.451C154.888 21.0283 155.414 20.8169 156.043 20.8169C156.671 20.8169 157.197 21.0283 157.62 21.451C158.042 21.8683 158.254 22.3912 158.254 23.0198C158.254 23.6485 158.042 24.1741 157.62 24.5968C157.191 25.0141 156.666 25.2227 156.043 25.2227C155.419 25.2227 154.894 25.0141 154.466 24.5968ZM156.043 24.5399C156.471 24.5399 156.828 24.3963 157.116 24.1091C157.403 23.811 157.546 23.4479 157.546 23.0198C157.546 22.5863 157.403 22.2259 157.116 21.9387C156.828 21.6461 156.471 21.4998 156.043 21.4998C155.614 21.4998 155.259 21.6461 154.978 21.9387C154.69 22.2259 154.547 22.5863 154.547 23.0198C154.547 23.4479 154.69 23.811 154.978 24.1091C155.265 24.3963 155.62 24.5399 156.043 24.5399ZM159.187 25.1333V20.9064H159.87V21.6136C160.206 21.0825 160.707 20.8169 161.374 20.8169C161.862 20.8169 162.265 20.9768 162.585 21.2965C162.91 21.6108 163.073 22.0119 163.073 22.4996V25.1333H162.39V22.6784C162.39 22.337 162.273 22.0498 162.04 21.8168C161.813 21.5838 161.528 21.4672 161.187 21.4672C160.818 21.4672 160.507 21.5865 160.252 21.8249C159.997 22.0633 159.87 22.3533 159.87 22.6947V25.1333H159.187ZM166.074 20.8169C166.708 20.8169 167.222 21.0473 167.618 21.5079V19.0367H168.301V25.1333H167.618V24.5318C167.222 24.9924 166.708 25.2227 166.074 25.2227C165.483 25.2227 164.987 25.0141 164.586 24.5968C164.19 24.1795 163.993 23.6539 163.993 23.0198C163.993 22.3858 164.19 21.8628 164.586 21.451C164.982 21.0283 165.478 20.8169 166.074 20.8169ZM166.147 21.4998C165.74 21.4998 165.396 21.6461 165.114 21.9387C164.838 22.2259 164.7 22.5863 164.7 23.0198C164.7 23.4534 164.838 23.8164 165.114 24.1091C165.402 24.3963 165.746 24.5399 166.147 24.5399C166.559 24.5399 166.903 24.3963 167.179 24.1091C167.461 23.8219 167.602 23.4588 167.602 23.0198C167.602 22.5809 167.461 22.2205 167.179 21.9387C166.903 21.6461 166.559 21.4998 166.147 21.4998ZM175.535 20.6219L174.812 20.8332C174.763 20.6164 174.622 20.4349 174.389 20.2886C174.161 20.1368 173.893 20.061 173.584 20.061C173.243 20.061 172.961 20.145 172.739 20.313C172.517 20.4755 172.405 20.6815 172.405 20.9307C172.405 21.2017 172.557 21.413 172.861 21.5648C173.099 21.6786 173.465 21.7978 173.958 21.9225C174.359 22.0254 174.671 22.1311 174.893 22.2395C175.413 22.4833 175.687 22.9087 175.714 23.5157C175.714 24.0251 175.519 24.4369 175.129 24.7513C174.749 25.0656 174.256 25.2227 173.649 25.2227C173.102 25.2227 172.636 25.0954 172.251 24.8407C171.866 24.5914 171.622 24.2662 171.519 23.8652L172.251 23.6457C172.294 23.895 172.446 24.1037 172.706 24.2717C172.972 24.4342 173.286 24.5155 173.649 24.5155C174.028 24.5155 174.346 24.4288 174.6 24.2554C174.855 24.0766 174.982 23.849 174.982 23.5726C174.982 23.2908 174.847 23.0794 174.576 22.9385C174.337 22.8139 174.064 22.7136 173.755 22.6378L173.413 22.5484L173.096 22.4508L172.763 22.337C172.747 22.3316 172.722 22.3235 172.69 22.3126C172.663 22.2964 172.628 22.2801 172.584 22.2639C172.541 22.2422 172.503 22.2232 172.47 22.207C172.335 22.1419 172.175 22.0254 171.991 21.8574C171.807 21.6732 171.698 21.3805 171.666 20.9795C171.666 20.4972 171.845 20.107 172.202 19.809C172.565 19.5055 173.023 19.3538 173.576 19.3538C174.075 19.3538 174.5 19.473 174.852 19.7114C175.21 19.9445 175.437 20.2479 175.535 20.6219ZM176.204 21.5079V20.9064H176.887V20.061H177.57V20.9064H178.748V21.5079H177.57V23.8083C177.57 23.998 177.627 24.1579 177.74 24.2879C177.86 24.4126 178.006 24.4749 178.179 24.4749H178.748V25.1333H178.131C177.778 25.1333 177.483 25.0141 177.245 24.7756C177.006 24.5372 176.887 24.2418 176.887 23.8896V21.5079H176.204ZM183.694 23.2556H180.06C180.109 23.6349 180.277 23.9519 180.564 24.2066C180.846 24.4559 181.193 24.5805 181.605 24.5805C182.141 24.5805 182.559 24.3773 182.857 23.9709L183.523 24.1822C183.328 24.5074 183.06 24.7621 182.718 24.9463C182.382 25.1306 182.011 25.2227 181.605 25.2227C180.965 25.2227 180.429 25.0141 179.995 24.5968C179.567 24.1741 179.353 23.6485 179.353 23.0198C179.353 22.3912 179.562 21.8683 179.979 21.451C180.396 21.0283 180.914 20.8169 181.532 20.8169C182.155 20.8169 182.672 21.0283 183.084 21.451C183.501 21.8683 183.71 22.3912 183.71 23.0198C183.71 23.0361 183.705 23.1147 183.694 23.2556ZM180.068 22.7028H183.003C182.938 22.3397 182.767 22.039 182.491 21.8005C182.22 21.5675 181.895 21.451 181.515 21.451C181.147 21.451 180.83 21.5675 180.564 21.8005C180.299 22.0335 180.133 22.3343 180.068 22.7028ZM185.264 26.9623H184.582V20.9064H185.264V21.5079C185.66 21.0473 186.172 20.8169 186.801 20.8169C187.397 20.8169 187.893 21.0283 188.288 21.451C188.689 21.8683 188.89 22.3912 188.89 23.0198C188.89 23.643 188.689 24.1687 188.288 24.5968C187.887 25.0141 187.391 25.2227 186.801 25.2227C186.172 25.2227 185.66 24.9924 185.264 24.5318V26.9623ZM186.728 21.4998C186.321 21.4998 185.977 21.6461 185.695 21.9387C185.419 22.2259 185.281 22.5863 185.281 23.0198C185.281 23.4534 185.419 23.8164 185.695 24.1091C185.982 24.3963 186.327 24.5399 186.728 24.5399C187.139 24.5399 187.484 24.3963 187.76 24.1091C188.042 23.8219 188.183 23.4588 188.183 23.0198C188.183 22.5809 188.042 22.2205 187.76 21.9387C187.484 21.6461 187.139 21.4998 186.728 21.4998Z" fill="white"/>
<path d="M204.963 103.914H202.833V103.232H207.824V103.914H205.694V108.922H204.963V103.914ZM208.652 106.532V108.922H207.969V104.695H208.652V105.41C208.972 104.874 209.473 104.605 210.156 104.605H210.27V105.361C210.183 105.329 210.083 105.312 209.969 105.312C209.595 105.312 209.284 105.429 209.034 105.662C208.78 105.9 208.652 106.19 208.652 106.532ZM212.681 104.605C213.315 104.605 213.83 104.836 214.225 105.296V104.695H214.908V108.922H214.225V108.32C213.83 108.781 213.315 109.011 212.681 109.011C212.09 109.011 211.594 108.802 211.193 108.385C210.798 107.968 210.6 107.442 210.6 106.808C210.6 106.174 210.798 105.651 211.193 105.239C211.589 104.817 212.085 104.605 212.681 104.605ZM212.754 105.288C212.347 105.288 212.003 105.434 211.722 105.727C211.445 106.014 211.307 106.375 211.307 106.808C211.307 107.242 211.445 107.605 211.722 107.897C212.009 108.185 212.353 108.328 212.754 108.328C213.166 108.328 213.51 108.185 213.786 107.897C214.068 107.61 214.209 107.247 214.209 106.808C214.209 106.369 214.068 106.009 213.786 105.727C213.51 105.434 213.166 105.288 212.754 105.288ZM217.92 104.605C218.554 104.605 219.069 104.836 219.464 105.296V102.825H220.147V108.922H219.464V108.32C219.069 108.781 218.554 109.011 217.92 109.011C217.329 109.011 216.833 108.802 216.432 108.385C216.037 107.968 215.839 107.442 215.839 106.808C215.839 106.174 216.037 105.651 216.432 105.239C216.828 104.817 217.324 104.605 217.92 104.605ZM217.993 105.288C217.587 105.288 217.243 105.434 216.961 105.727C216.684 106.014 216.546 106.375 216.546 106.808C216.546 107.242 216.684 107.605 216.961 107.897C217.248 108.185 217.592 108.328 217.993 108.328C218.405 108.328 218.749 108.185 219.025 107.897C219.307 107.61 219.448 107.247 219.448 106.808C219.448 106.369 219.307 106.009 219.025 105.727C218.749 105.434 218.405 105.288 217.993 105.288ZM221.981 108.922H221.298V104.695H221.981V108.922ZM221.298 104.004C221.211 103.912 221.168 103.798 221.168 103.662C221.168 103.527 221.211 103.416 221.298 103.329C221.39 103.237 221.504 103.191 221.639 103.191C221.775 103.191 221.888 103.237 221.981 103.329C222.073 103.416 222.119 103.527 222.119 103.662C222.119 103.798 222.073 103.912 221.981 104.004C221.888 104.09 221.775 104.134 221.639 104.134C221.504 104.134 221.39 104.09 221.298 104.004ZM223.131 108.922V104.695H223.814V105.402C224.15 104.871 224.652 104.605 225.318 104.605C225.806 104.605 226.21 104.765 226.529 105.085C226.854 105.399 227.017 105.8 227.017 106.288V108.922H226.334V106.467C226.334 106.125 226.218 105.838 225.985 105.605C225.757 105.372 225.473 105.256 225.131 105.256C224.763 105.256 224.451 105.375 224.196 105.613C223.942 105.852 223.814 106.142 223.814 106.483V108.922H223.131ZM230.018 109.011C229.427 109.011 228.931 108.802 228.53 108.385C228.135 107.968 227.937 107.442 227.937 106.808C227.937 106.174 228.135 105.651 228.53 105.239C228.926 104.817 229.422 104.605 230.018 104.605C230.652 104.605 231.167 104.836 231.562 105.296V104.695H232.245V108.743C232.245 109.344 232.039 109.843 231.627 110.238C231.21 110.64 230.703 110.84 230.107 110.84C229.695 110.84 229.308 110.737 228.945 110.531C228.593 110.325 228.335 110.065 228.173 109.751L228.855 109.531C228.969 109.716 229.137 109.865 229.359 109.978C229.587 110.098 229.828 110.157 230.083 110.157C230.5 110.157 230.852 110.022 231.14 109.751C231.427 109.48 231.568 109.144 231.562 108.743V108.32C231.167 108.781 230.652 109.011 230.018 109.011ZM230.091 105.288C229.685 105.288 229.34 105.434 229.059 105.727C228.782 106.014 228.644 106.375 228.644 106.808C228.644 107.242 228.782 107.605 229.059 107.897C229.346 108.185 229.69 108.328 230.091 108.328C230.503 108.328 230.847 108.185 231.123 107.897C231.405 107.61 231.546 107.247 231.546 106.808C231.546 106.369 231.405 106.009 231.123 105.727C230.847 105.434 230.503 105.288 230.091 105.288Z" fill="white"/>
<path d="M324.11 22.0017H321.98V21.3189H326.971V22.0017H324.841V27.009H324.11V22.0017ZM327.768 27.009V20.9125H328.45V23.4893C328.786 22.9582 329.29 22.6927 329.962 22.6927C330.45 22.6927 330.859 22.8525 331.19 23.1723C331.515 23.4866 331.677 23.8876 331.677 24.3753V27.009H330.995V24.5542C330.995 24.2127 330.878 23.9255 330.645 23.6925C330.412 23.4595 330.122 23.343 329.775 23.343C329.401 23.343 329.087 23.4622 328.832 23.7006C328.578 23.9391 328.45 24.229 328.45 24.5704V27.009H327.768ZM333.499 27.009H332.816V22.7821H333.499V27.009ZM332.816 22.0911C332.73 21.999 332.686 21.8852 332.686 21.7497C332.686 21.6143 332.73 21.5032 332.816 21.4165C332.908 21.3243 333.022 21.2783 333.158 21.2783C333.293 21.2783 333.407 21.3243 333.499 21.4165C333.591 21.5032 333.637 21.6143 333.637 21.7497C333.637 21.8852 333.591 21.999 333.499 22.0911C333.407 22.1779 333.293 22.2212 333.158 22.2212C333.022 22.2212 332.908 22.1779 332.816 22.0911ZM335.333 24.6192V27.009H334.65V22.7821H335.333V23.4974C335.653 22.9609 336.154 22.6927 336.837 22.6927H336.95V23.4486C336.864 23.4161 336.763 23.3999 336.65 23.3999C336.276 23.3999 335.964 23.5164 335.715 23.7494C335.46 23.9879 335.333 24.2778 335.333 24.6192ZM339.361 22.6927C339.995 22.6927 340.51 22.923 340.906 23.3836V20.9125H341.589V27.009H340.906V26.4075C340.51 26.8681 339.995 27.0984 339.361 27.0984C338.771 27.0984 338.275 26.8898 337.874 26.4725C337.478 26.0553 337.28 25.5296 337.28 24.8956C337.28 24.2615 337.478 23.7386 337.874 23.3267C338.269 22.904 338.765 22.6927 339.361 22.6927ZM339.434 23.3755C339.028 23.3755 338.684 23.5218 338.402 23.8144C338.126 24.1017 337.988 24.462 337.988 24.8956C337.988 25.3291 338.126 25.6922 338.402 25.9848C338.689 26.272 339.033 26.4156 339.434 26.4156C339.846 26.4156 340.19 26.272 340.467 25.9848C340.749 25.6976 340.889 25.3345 340.889 24.8956C340.889 24.4566 340.749 24.0962 340.467 23.8144C340.19 23.5218 339.846 23.3755 339.434 23.3755ZM348.823 22.4976L348.099 22.7089C348.05 22.4922 347.91 22.3106 347.677 22.1643C347.449 22.0126 347.181 21.9367 346.872 21.9367C346.53 21.9367 346.249 22.0207 346.026 22.1887C345.804 22.3513 345.693 22.5572 345.693 22.8065C345.693 23.0774 345.845 23.2888 346.148 23.4405C346.387 23.5543 346.753 23.6735 347.246 23.7982C347.647 23.9011 347.958 24.0068 348.181 24.1152C348.701 24.3591 348.974 24.7845 349.002 25.3914C349.002 25.9008 348.806 26.3127 348.416 26.627C348.037 26.9413 347.544 27.0984 346.937 27.0984C346.389 27.0984 345.923 26.9711 345.539 26.7164C345.154 26.4671 344.91 26.142 344.807 25.741L345.539 25.5215C345.582 25.7708 345.734 25.9794 345.994 26.1474C346.259 26.31 346.574 26.3912 346.937 26.3912C347.316 26.3912 347.633 26.3045 347.888 26.1311C348.143 25.9523 348.27 25.7247 348.27 25.4483C348.27 25.1665 348.134 24.9552 347.863 24.8143C347.625 24.6896 347.351 24.5894 347.042 24.5135L346.701 24.4241L346.384 24.3266L346.051 24.2127C346.035 24.2073 346.01 24.1992 345.978 24.1884C345.951 24.1721 345.915 24.1558 345.872 24.1396C345.829 24.1179 345.791 24.0989 345.758 24.0827C345.623 24.0177 345.463 23.9011 345.279 23.7332C345.094 23.5489 344.986 23.2563 344.953 22.8552C344.953 22.3729 345.132 21.9828 345.49 21.6847C345.853 21.3812 346.311 21.2295 346.864 21.2295C347.362 21.2295 347.788 21.3487 348.14 21.5872C348.498 21.8202 348.725 22.1237 348.823 22.4976ZM349.492 23.3836V22.7821H350.175V21.9367H350.857V22.7821H352.036V23.3836H350.857V25.684C350.857 25.8737 350.914 26.0336 351.028 26.1636C351.147 26.2883 351.294 26.3506 351.467 26.3506H352.036V27.009H351.418C351.066 27.009 350.771 26.8898 350.532 26.6514C350.294 26.4129 350.175 26.1176 350.175 25.7653V23.3836H349.492ZM356.982 25.1313H353.348C353.397 25.5106 353.565 25.8277 353.852 26.0824C354.134 26.3316 354.481 26.4563 354.892 26.4563C355.429 26.4563 355.846 26.2531 356.144 25.8466L356.811 26.058C356.616 26.3831 356.347 26.6378 356.006 26.8221C355.67 27.0063 355.299 27.0984 354.892 27.0984C354.253 27.0984 353.716 26.8898 353.283 26.4725C352.855 26.0498 352.641 25.5242 352.641 24.8956C352.641 24.2669 352.849 23.744 353.267 23.3267C353.684 22.904 354.201 22.6927 354.819 22.6927C355.442 22.6927 355.96 22.904 356.372 23.3267C356.789 23.744 356.998 24.2669 356.998 24.8956C356.998 24.9118 356.992 24.9904 356.982 25.1313ZM353.356 24.5785H356.291C356.226 24.2155 356.055 23.9147 355.778 23.6763C355.507 23.4432 355.182 23.3267 354.803 23.3267C354.435 23.3267 354.117 23.4432 353.852 23.6763C353.586 23.9093 353.421 24.21 353.356 24.5785ZM358.552 28.838H357.869V22.7821H358.552V23.3836C358.948 22.923 359.46 22.6927 360.088 22.6927C360.685 22.6927 361.18 22.904 361.576 23.3267C361.977 23.744 362.177 24.2669 362.177 24.8956C362.177 25.5188 361.977 26.0444 361.576 26.4725C361.175 26.8898 360.679 27.0984 360.088 27.0984C359.46 27.0984 358.948 26.8681 358.552 26.4075V28.838ZM360.015 23.3755C359.609 23.3755 359.265 23.5218 358.983 23.8144C358.707 24.1017 358.568 24.462 358.568 24.8956C358.568 25.3291 358.707 25.6922 358.983 25.9848C359.27 26.272 359.614 26.4156 360.015 26.4156C360.427 26.4156 360.771 26.272 361.048 25.9848C361.329 25.6976 361.47 25.3345 361.47 24.8956C361.47 24.4566 361.329 24.0962 361.048 23.8144C360.771 23.5218 360.427 23.3755 360.015 23.3755Z" fill="white"/>
<path d="M142.489 243.047H145.325V243.519H142.995V244.758H145.038V245.23H142.995V246.513H145.353V246.986H142.489V243.047ZM147.173 243.998C147.612 243.998 147.968 244.157 148.242 244.476V244.06H148.715V246.986H148.242V246.57C147.968 246.889 147.612 247.048 147.173 247.048C146.764 247.048 146.421 246.904 146.143 246.615C145.869 246.326 145.732 245.962 145.732 245.523C145.732 245.084 145.869 244.722 146.143 244.437C146.417 244.144 146.76 243.998 147.173 243.998ZM147.224 244.471C146.942 244.471 146.704 244.572 146.509 244.774C146.318 244.973 146.222 245.223 146.222 245.523C146.222 245.823 146.318 246.074 146.509 246.277C146.708 246.476 146.946 246.575 147.224 246.575C147.509 246.575 147.747 246.476 147.938 246.277C148.133 246.078 148.231 245.827 148.231 245.523C148.231 245.219 148.133 244.97 147.938 244.774C147.747 244.572 147.509 244.471 147.224 244.471ZM149.984 245.332V246.986H149.511V244.06H149.984V244.555C150.205 244.184 150.552 243.998 151.025 243.998H151.104V244.521C151.044 244.499 150.975 244.487 150.896 244.487C150.637 244.487 150.421 244.568 150.249 244.729C150.072 244.894 149.984 245.095 149.984 245.332ZM151.622 246.986V244.06H152.094V244.549C152.327 244.182 152.674 243.998 153.136 243.998C153.473 243.998 153.753 244.109 153.974 244.33C154.199 244.547 154.312 244.825 154.312 245.163V246.986H153.839V245.287C153.839 245.05 153.758 244.851 153.597 244.69C153.439 244.529 153.242 244.448 153.006 244.448C152.751 244.448 152.535 244.531 152.359 244.696C152.183 244.861 152.094 245.061 152.094 245.298V246.986H151.622ZM155.573 246.986H155.1V244.06H155.573V246.986ZM155.1 243.581C155.04 243.518 155.01 243.439 155.01 243.345C155.01 243.251 155.04 243.174 155.1 243.114C155.164 243.051 155.243 243.019 155.337 243.019C155.431 243.019 155.509 243.051 155.573 243.114C155.637 243.174 155.669 243.251 155.669 243.345C155.669 243.439 155.637 243.518 155.573 243.581C155.509 243.641 155.431 243.671 155.337 243.671C155.243 243.671 155.164 243.641 155.1 243.581ZM156.37 246.986V244.06H156.843V244.549C157.075 244.182 157.422 243.998 157.884 243.998C158.221 243.998 158.501 244.109 158.722 244.33C158.947 244.547 159.06 244.825 159.06 245.163V246.986H158.587V245.287C158.587 245.05 158.507 244.851 158.345 244.69C158.188 244.529 157.991 244.448 157.754 244.448C157.499 244.448 157.284 244.531 157.107 244.696C156.931 244.861 156.843 245.061 156.843 245.298V246.986H156.37ZM161.137 247.048C160.729 247.048 160.385 246.904 160.108 246.615C159.834 246.326 159.697 245.962 159.697 245.523C159.697 245.084 159.834 244.722 160.108 244.437C160.382 244.144 160.725 243.998 161.137 243.998C161.576 243.998 161.933 244.157 162.207 244.476V244.06H162.679V246.862C162.679 247.279 162.537 247.624 162.252 247.898C161.963 248.175 161.612 248.314 161.199 248.314C160.914 248.314 160.646 248.243 160.395 248.1C160.151 247.958 159.973 247.778 159.86 247.56L160.333 247.408C160.412 247.536 160.528 247.639 160.682 247.718C160.839 247.8 161.006 247.841 161.183 247.841C161.471 247.841 161.715 247.748 161.914 247.56C162.113 247.373 162.21 247.14 162.207 246.862V246.57C161.933 246.889 161.576 247.048 161.137 247.048ZM161.188 244.471C160.907 244.471 160.669 244.572 160.473 244.774C160.282 244.973 160.186 245.223 160.186 245.523C160.186 245.823 160.282 246.074 160.473 246.277C160.672 246.476 160.911 246.575 161.188 246.575C161.473 246.575 161.711 246.476 161.903 246.277C162.098 246.078 162.195 245.827 162.195 245.523C162.195 245.219 162.098 244.97 161.903 244.774C161.711 244.572 161.473 244.471 161.188 244.471Z" fill="white"/>
<path d="M280.637 245.113L280.136 245.26C280.102 245.11 280.005 244.984 279.843 244.883C279.686 244.777 279.5 244.725 279.286 244.725C279.05 244.725 278.855 244.783 278.701 244.899C278.547 245.012 278.47 245.155 278.47 245.327C278.47 245.515 278.575 245.661 278.785 245.766C278.95 245.845 279.204 245.927 279.545 246.014C279.823 246.085 280.038 246.158 280.192 246.233C280.552 246.402 280.742 246.696 280.761 247.117C280.761 247.469 280.626 247.754 280.355 247.972C280.093 248.19 279.751 248.298 279.331 248.298C278.952 248.298 278.63 248.21 278.363 248.034C278.097 247.861 277.928 247.636 277.857 247.359L278.363 247.207C278.393 247.379 278.498 247.524 278.678 247.64C278.862 247.753 279.08 247.809 279.331 247.809C279.594 247.809 279.813 247.749 279.99 247.629C280.166 247.505 280.254 247.347 280.254 247.156C280.254 246.961 280.16 246.815 279.973 246.717C279.808 246.631 279.618 246.561 279.404 246.509L279.168 246.447L278.948 246.379L278.718 246.301C278.706 246.297 278.69 246.291 278.667 246.284C278.648 246.273 278.624 246.261 278.594 246.25C278.564 246.235 278.538 246.222 278.515 246.211C278.421 246.166 278.311 246.085 278.183 245.969C278.056 245.841 277.981 245.639 277.958 245.361C277.958 245.027 278.082 244.757 278.329 244.551C278.581 244.34 278.898 244.235 279.281 244.235C279.626 244.235 279.92 244.318 280.164 244.483C280.412 244.644 280.569 244.854 280.637 245.113ZM281.1 245.727V245.31H281.573V244.725H282.045V245.31H282.861V245.727H282.045V247.319C282.045 247.451 282.085 247.561 282.164 247.651C282.246 247.738 282.347 247.781 282.467 247.781H282.861V248.237H282.434C282.19 248.237 281.985 248.154 281.82 247.989C281.655 247.824 281.573 247.619 281.573 247.376V245.727H281.1ZM284.721 245.248C285.16 245.248 285.516 245.408 285.79 245.727V245.31H286.263V248.237H285.79V247.82C285.516 248.139 285.16 248.298 284.721 248.298C284.312 248.298 283.968 248.154 283.691 247.865C283.417 247.576 283.28 247.212 283.28 246.773C283.28 246.334 283.417 245.972 283.691 245.687C283.965 245.395 284.308 245.248 284.721 245.248ZM284.771 245.721C284.49 245.721 284.252 245.822 284.057 246.025C283.865 246.224 283.77 246.473 283.77 246.773C283.77 247.074 283.865 247.325 284.057 247.527C284.256 247.726 284.494 247.826 284.771 247.826C285.056 247.826 285.295 247.726 285.486 247.527C285.681 247.329 285.779 247.077 285.779 246.773C285.779 246.47 285.681 246.22 285.486 246.025C285.295 245.822 285.056 245.721 284.771 245.721ZM287.059 248.237V244.016H287.532V248.237H287.059ZM289.462 248.237H288.871L287.554 246.723L288.759 245.31H289.338L288.14 246.723L289.462 248.237ZM290.428 248.237H289.955V245.31H290.428V248.237ZM289.955 244.832C289.895 244.768 289.865 244.689 289.865 244.596C289.865 244.502 289.895 244.425 289.955 244.365C290.019 244.301 290.098 244.269 290.192 244.269C290.286 244.269 290.364 244.301 290.428 244.365C290.492 244.425 290.524 244.502 290.524 244.596C290.524 244.689 290.492 244.768 290.428 244.832C290.364 244.892 290.286 244.922 290.192 244.922C290.098 244.922 290.019 244.892 289.955 244.832ZM291.225 248.237V245.31H291.698V245.8C291.93 245.432 292.277 245.248 292.739 245.248C293.076 245.248 293.356 245.359 293.577 245.58C293.802 245.798 293.915 246.076 293.915 246.413V248.237H293.442V246.537C293.442 246.301 293.361 246.102 293.2 245.941C293.043 245.779 292.846 245.699 292.609 245.699C292.354 245.699 292.138 245.781 291.962 245.946C291.786 246.111 291.698 246.312 291.698 246.548V248.237H291.225ZM295.992 248.298C295.583 248.298 295.24 248.154 294.963 247.865C294.689 247.576 294.552 247.212 294.552 246.773C294.552 246.334 294.689 245.972 294.963 245.687C295.236 245.395 295.58 245.248 295.992 245.248C296.431 245.248 296.788 245.408 297.062 245.727V245.31H297.534V248.113C297.534 248.529 297.392 248.874 297.107 249.148C296.818 249.426 296.467 249.565 296.054 249.565C295.769 249.565 295.501 249.493 295.25 249.351C295.006 249.208 294.827 249.028 294.715 248.811L295.188 248.659C295.266 248.786 295.383 248.889 295.537 248.968C295.694 249.051 295.861 249.092 296.037 249.092C296.326 249.092 296.57 248.998 296.769 248.811C296.968 248.623 297.065 248.39 297.062 248.113V247.82C296.788 248.139 296.431 248.298 295.992 248.298ZM296.043 245.721C295.762 245.721 295.523 245.822 295.328 246.025C295.137 246.224 295.041 246.473 295.041 246.773C295.041 247.074 295.137 247.325 295.328 247.527C295.527 247.726 295.765 247.826 296.043 247.826C296.328 247.826 296.566 247.726 296.758 247.527C296.953 247.329 297.05 247.077 297.05 246.773C297.05 246.47 296.953 246.22 296.758 246.025C296.566 245.822 296.328 245.721 296.043 245.721Z" fill="white"/>
</g>
<defs>
<filter id="filter0_d_5256_46" x="0" y="0" width="391.927" height="280" filterUnits="userSpaceOnUse" color-interpolation-filters="sRGB">
<feFlood flood-opacity="0" result="BackgroundImageFix"/>
<feColorMatrix in="SourceAlpha" type="matrix" values="0 0 0 0 0 0 0 0 0 0 0 0 0 0 0 0 0 0 127 0" result="hardAlpha"/>
<feOffset dy="4"/>
<feGaussianBlur stdDeviation="2"/>
<feComposite in2="hardAlpha" operator="out"/>
<feColorMatrix type="matrix" values="0 0 0 0 0 0 0 0 0 0 0 0 0 0 0 0 0 0 0.25 0"/>
<feBlend mode="normal" in2="BackgroundImageFix" result="effect1_dropShadow_5256_46"/>
<feBlend mode="normal" in="SourceGraphic" in2="effect1_dropShadow_5256_46" result="shape"/>
</filter>
<filter id="filter1_b_5256_46" x="-1.62759" y="-5.62759" width="395.182" height="283.255" filterUnits="userSpaceOnUse" color-interpolation-filters="sRGB">
<feFlood flood-opacity="0" result="BackgroundImageFix"/>
<feGaussianBlur in="BackgroundImageFix" stdDeviation="2.81379"/>
<feComposite in2="SourceAlpha" operator="in" result="effect1_backgroundBlur_5256_46"/>
<feBlend mode="normal" in="SourceGraphic" in2="effect1_backgroundBlur_5256_46" result="shape"/>
</filter>
<radialGradient id="paint0_radial_5256_46" cx="0" cy="0" r="1" gradientUnits="userSpaceOnUse" gradientTransform="translate(208.469 114.74) rotate(92.3003) scale(148 208.901)">
<stop stop-color="#40539D"/>
<stop offset="1" stop-color="#605CFF" stop-opacity="0"/>
</radialGradient>
</defs>
</svg>
